<svg height="1240" viewBox="0 0 1240 1240" width="1240" xmlns="http://www.w3.org/2000/svg"><g fill="none" fill-rule="evenodd" transform="translate(316 253)"><path d="m97.9342105 586h411.0000005v-302.803493c0-113.326902-92.005484-205.196507-205.5-205.196507-113.494517 0-205.5000005 91.869605-205.5000005 205.196507z" stroke="#979797" stroke-width="50"/><g fill="#979797" fill-rule="nonzero"><path d="m49.2144303 559h509.4395607c26.664429 0 48.28022 13.732804 48.28022 30.673077v24.326923h-606.00000047v-24.326923c0-16.940273 21.61579067-30.673077 48.28021977-30.673077z"/><path d="m224.934211 657h158c0 43.07821-34.871344 78-77.887324 78h-2.225353c-43.01598 0-77.887323-34.92179-77.887323-78z"/><path d="m260 0h87v34.5428571c0 24.0007173-19.475614 43.4571429-43.5 43.4571429-24.024386 0-43.5-19.4564256-43.5-43.4571429z" transform="matrix(1 0 0 -1 0 78)"/></g></g></svg>