<svg height="20" viewBox="0 0 20 20" width="20" xmlns="http://www.w3.org/2000/svg"><path d="m10.2392344 0c3.1453243 0 6.0574291 1.39466883 7.9887341 3.74426305.2315936.28175303.1854671.69351617-.1030265.91969871-.2884935.22618255-.7101074.18113377-.941701-.10061926-1.6796694-2.04345854-4.2092561-3.25493129-6.9440066-3.25493129-4.91506997 0-8.89952148 3.89135685-8.89952148 8.69158879 0 4.8002319 3.98445151 8.6915888 8.89952148 8.6915888 2.7752189 0 5.3382312-1.2478778 7.0154504-3.3430031.2278634-.2846392.6488491-.334981.9402979-.1124415s.3429949.6336891.1151315.9183283c-1.9284837 2.4089963-4.8789707 3.8455275-8.0708798 3.8455275-5.65497299 0-10.2392344-4.4771525-10.2392344-10s4.58426141-10 10.2392344-10zm6.8586298 7.15999289 2.7066288 2.70662883c.2615952.26159518.26655.68077008.0110669.93625328l-2.6433899 2.6433898c-.2554832.2554832-.674658.2505284-.9362532-.0110668-.2615953-.2615952-.2665501-.6807701-.0110669-.9362533l1.5466862-1.5474362-10.30914349.0002926c-.36995151 0-.66985646-.2928979-.66985646-.6542057 0-.36130774.29990495-.65420556.66985646-.65420556l10.26814349-.0008813-1.5578583-1.55732921c-.2615953-.26159522-.26655-.68077008-.0110669-.93625326.2554832-.25548318.6746581-.2505284.9362533.01106682z" fill="#555"/></svg>