<svg xmlns="http://www.w3.org/2000/svg" width="24" height="24" stroke-width="1.5" stroke="#808080" fill="none" stroke-linejoin="round" stroke-linecap="round" viewBox="0 0 24 24"> <g fill="none" fill-rule="evenodd"><rect width="24" height="24" style="stroke:rgba(0,0,0,0)"></rect><path d="M12,15 C13.657,15 15,13.657 15,12 C15,10.343 13.657,9 12,9 C10.344,9 9,10.343 9,12 C9,13.657 10.344,15 12,15 Z M18.728,14.728 C18.48,15.288 18.599,15.943 19.027,16.382 L19.082,16.437 C19.424,16.777 19.615,17.24 19.615,17.723 C19.615,18.205 19.424,18.668 19.082,19.009 C18.741,19.351 18.278,19.542 17.796,19.542 C17.313,19.542 16.851,19.351 16.51,19.009 L16.455,18.955 C16.017,18.526 15.361,18.407 14.801,18.654 C14.251,18.891 13.894,19.43 13.892,20.027 L13.892,20.182 C13.892,21.187 13.077,22 12.073,22 C11.069,22 10.255,21.187 10.255,20.182 L10.255,20.101 C10.24,19.484 9.852,18.94 9.273,18.728 C8.712,18.479 8.057,18.599 7.619,19.027 L7.564,19.082 C7.223,19.424 6.761,19.615 6.277,19.615 C5.795,19.615 5.332,19.424 4.991,19.082 C4.65,18.741 4.458,18.278 4.458,17.796 C4.458,17.313 4.65,16.851 4.991,16.509 L5.046,16.455 C5.475,16.017 5.594,15.361 5.346,14.8 C5.11,14.251 4.571,13.894 3.974,13.891 L3.818,13.891 C2.814,13.891 2,13.077 2,12.073 C2,11.069 2.814,10.255 3.818,10.255 L3.9,10.255 C4.517,10.24 5.061,9.851 5.273,9.273 C5.521,8.712 5.402,8.057 4.974,7.618 L4.919,7.564 C4.577,7.223 4.386,6.76 4.386,6.277 C4.386,5.795 4.577,5.332 4.919,4.991 C5.26,4.649 5.723,4.458 6.205,4.458 C6.688,4.458 7.15,4.649 7.491,4.991 L7.546,5.045 C7.984,5.475 8.64,5.593 9.2,5.346 L9.273,5.346 C9.822,5.11 10.18,4.571 10.183,3.973 L10.183,3.818 C10.183,2.814 10.996,2 12,2 C13.005,2 13.818,2.814 13.818,3.818 L13.818,3.9 C13.821,4.498 14.179,5.037 14.728,5.273 C15.289,5.521 15.944,5.402 16.382,4.973 L16.437,4.918 C16.778,4.577 17.24,4.385 17.724,4.385 C18.206,4.385 18.669,4.577 19.01,4.918 C19.351,5.259 19.543,5.722 19.543,6.205 C19.543,6.687 19.351,7.15 19.01,7.491 L18.955,7.545 C18.526,7.984 18.407,8.639 18.655,9.2 L18.655,9.273 C18.891,9.822 19.43,10.18 20.027,10.182 L20.183,10.182 C21.187,10.182 22,10.996 22,12 C22,13.004 21.187,13.818 20.183,13.818 L20.101,13.818 C19.503,13.82 18.963,14.178 18.728,14.728 Z" stroke="#808080"></path></g></svg>