<svg class="svg-icon" style="width: 1em; height: 1em;vertical-align: middle;fill: currentColor;overflow: hidden;" viewBox="0 0 1024 1024" version="1.1" xmlns="http://www.w3.org/2000/svg"><path d="M 512 960 c -247.424 0 -448 -200.576 -448 -448 S 264.576 64 512 64 s 448 200.576 448 448 s -200.576 448 -448 448 Z m 96.676 -580.64 a 32 32 0 0 0 -59.308 -19.268 l -99.012 164.816 a 76.368 76.368 0 0 0 -7.164 15.728 c -13.036 40.112 8.92 83.196 49.032 96.228 c 5.496 1.788 11.176 2.944 16.936 3.448 c 42.016 3.68 79.06 -27.4 82.74 -69.416 l 16.776 -191.532 Z M 512 128 c -134.452 0 -252.768 69.1 -321.364 173.728 l 53.56 35.044 C 301.36 249.584 399.96 192 512 192 c 113.584 0 213.348 59.18 270.14 148.388 l 54.028 -34.32 C 768.02 199.012 648.304 128 512 128 Z" fill="#868686" /></svg>