<svg class="svg-icon" style="width: 1em;height: 1em;vertical-align: middle;fill: currentColor;overflow: hidden;" viewBox="0 0 1024 1024" version="1.1" xmlns="http://www.w3.org/2000/svg"><path d="M898.831059 421.165176c-14.275765 0-37.406118 4.577882-59.873883 11.986824a359.484235 359.484235 0 0 0-71.860705-171.851294c21.323294-10.661647 40.96-23.853176 51.079529-33.912471 24.816941-24.816941 26.142118-63.789176 3.072-86.799059-23.190588-23.190588-62.102588-21.805176-86.859294 2.95153-10.179765 10.24-23.491765 30.057412-34.093177 51.440941a356.954353 356.954353 0 0 0-172.15247-71.017412c7.589647-22.648471 12.227765-45.959529 12.227765-60.355764 0-35.056941-26.563765-63.548235-59.27153-63.548236-32.707765 0-59.271529 28.491294-59.271529 63.548236 0 14.456471 4.698353 37.948235 12.288 60.656941a359.604706 359.604706 0 0 0-171.91153 71.318588c-10.661647-21.323294-23.853176-41.140706-34.093176-51.320471-24.756706-24.816941-63.668706-26.142118-86.799059-3.011764-23.130353 23.130353-21.744941 62.042353 3.011765 86.799059 10.179765 10.179765 30.057412 23.491765 51.440941 34.093176a359.604706 359.604706 0 0 0-71.378824 172.032c-22.467765-7.529412-45.778824-12.107294-60.054588-12.107294-35.056941 0-63.548235 26.563765-63.548235 59.271529 0 32.707765 28.491294 59.271529 63.548235 59.27153 14.275765 0 37.466353-4.577882 59.934118-12.047059a358.159059 358.159059 0 0 0 71.439059 172.032c-21.142588 10.601412-40.719059 23.732706-50.718118 33.792-24.816941 24.816941-26.142118 63.728941-3.072 86.799059 23.190588 23.190588 62.102588 21.805176 86.859294-2.95153 10.059294-10.059294 23.070118-29.394824 33.731765-50.416941a358.339765 358.339765 0 0 0 172.212706 71.017412c-7.408941 22.287059-11.866353 45.236706-11.866353 59.392 0 35.056941 26.563765 63.548235 59.271529 63.548235 32.707765 0 59.271529-28.491294 59.27153-63.548235 0-14.155294-4.457412-37.044706-11.806118-59.331765a358.761412 358.761412 0 0 0 172.032-71.68c10.601412 20.961882 23.552 40.357647 33.551059 50.356706 24.816941 24.816941 63.789176 26.142118 86.919529 3.072 23.130353-23.190588 21.744941-62.102588-3.072-86.859294-9.999059-9.999059-29.394824-23.009882-50.356706-33.611294a348.641882 348.641882 0 0 0 71.137883-172.212706c22.287059 7.288471 45.116235 11.745882 59.211294 11.745882 35.056941 0 63.548235-26.563765 63.548235-59.271529 0-32.707765-28.672-59.271529-63.728941-59.27153z m-194.499765-127.277176a290.454588 290.454588 0 0 1 67.46353 163.177412l-212.87153 19.335529a72.583529 72.583529 0 0 0-17.648941-42.405647l163.056941-140.107294zM532.419765 425.140706a79.811765 79.811765 0 0 0-42.526118-18.070588l16.865882-215.762824a290.695529 290.695529 0 0 1 163.478589 68.427294L532.419765 425.140706zM459.414588 191.186824l18.070588 215.280941c-16.986353 0.662588-32.527059 6.445176-45.116235 15.902117L293.767529 258.951529a289.671529 289.671529 0 0 1 165.647059-67.764705zM259.312941 293.345882l163.056941 137.818353c-11.444706 12.107294-18.733176 27.768471-19.998117 45.056l-211.124706-18.010353a290.213647 290.213647 0 0 1 68.065882-164.864z m143.36 196.48753c1.927529 16.986353 9.456941 32.286118 21.323294 43.911529l-163.358117 137.456941a289.008941 289.008941 0 0 1-69.210353-164.321882l211.245176-17.046588z m31.322353 52.224c12.348235 8.794353 27.407059 14.034824 43.851294 14.637176l-18.070588 215.280941a290.695529 290.695529 0 0 1-164.683294-66.56l138.902588-163.358117z m73.185882 229.677176l-17.347764-215.642353c15.781647-1.807059 30.057412-7.951059 41.502117-17.287529l139.685647 163.84a289.129412 289.129412 0 0 1-163.84 69.089882z m197.812706-103.243294L540.250353 530.432a73.487059 73.487059 0 0 0 18.492235-41.441882l213.172706 16.263529a290.816 290.816 0 0 1-66.921412 163.237647z" fill="#434343" /></svg>