<svg fill="none" height="24" viewBox="0 0 24 24" width="24" xmlns="http://www.w3.org/2000/svg"><g fill="#292d32"><path d="m21.0409 7.19-9.04 5.23-9.03996-5.23c.4-.74.98-1.39 1.63-1.75l5.34-2.96c1.13996-.64 2.99996-.64 4.13996 0l5.34 2.96c.65.36 1.23 1.01 1.63 1.75z" opacity=".4"/><path d="m12.0006 12.4199v9.58c-.75 0-1.5-.16-2.06998-.48l-5.33999-2.96c-1.21-.67-2.20001-2.35-2.20001-3.73v-5.65996c0-.64.22-1.34.57-1.98z" opacity=".6"/><path d="m21.61 9.16994v5.65996c0 1.38-.99 3.06-2.2 3.73l-5.34 2.96c-.57.32-1.32.48-2.07.48v-9.58l9.04-5.22996c.35.64.57 1.34.57 1.98z"/></g></svg>