<svg fill="none" height="24" viewBox="0 0 24 24" width="24" xmlns="http://www.w3.org/2000/svg"><g fill="#292d32"><path d="m20.1004 6.93998c0 .54-.29 1.02997-.75 1.27997l-1.74.94-1.48.79004-3.07 1.66001c-.33.18-.69.27-1.06.27s-.73-.09-1.06-.27l-6.29001-3.39005c-.46-.25-.75-.73997-.75-1.27997s.29-1.03003.75-1.28003l1.97-1.05999 1.57001-.84998 2.75-1.47998c.66-.36 1.46-.36 2.12 0l6.29 3.38995c.46.25.75.74003.75 1.28003z" opacity=".4"/><path d="m9.9007 12.7899-5.85001-2.93001c-.45-.23-.96999-.2-1.39999.06-.43.26001-.68.72001-.68 1.22001v5.53c0 .96.52999 1.82 1.38999 2.25l5.85 2.92c.2.1.42002.15.64002.15.25999 0 .51999-.07.74999-.22.43-.26.68-.72.68-1.22v-5.53c.01-.94-.52-1.8-1.38-2.23z" opacity=".4"/><path d="m22.0309 11.1502v5.5299c0 .95-.5299 1.81-1.3899 2.24l-5.85 2.93c-.2.1-.4201.15-.6401.15-.26 0-.5199-.0699-.7599-.2199-.42-.26-.6801-.7201-.6801-1.2201v-5.52c0-.96.5301-1.82 1.3901-2.25l2.1499-1.07 1.5-.75 2.2001-1.09997c.45-.23.97-.21001 1.4.05999.42.25998.6799.72008.6799 1.22008z" opacity=".4"/><path d="m17.6091 9.15997-1.4799.79004-9.51006-5.35003 1.57001-.84998 9.17995 5.17999c.1.06.18.13998.24.22998z"/><path d="m17.75 10.97v2.27c0 .41-.34.75-.75.75s-.75-.34-.75-.75v-1.52z"/></g></svg>