<svg height="20" viewBox="0 0 20 20" width="20" xmlns="http://www.w3.org/2000/svg"><path d="m9.98546213 0c1.08835297 0 1.97063737.89795637 1.97063737 2.00564169l-.0086733.16293233c.8680096.35194677 1.7062243.93664506 2.4508121 1.7094973.8615941.89430011 1.3660931 2.07808087 1.5212089 3.59671367v5.47824131l1.1905888 2.0979182c.3994905.6658014.5276823 1.2240541.2157608 1.7067486-.2854397.4417141-.7963123.5948587-1.4907004.5835313l-2.6698165.0005311c-.3103375 1.5178345-1.6320525 2.6582445-3.21547576 2.6582445-1.58342328 0-2.90513826-1.14041-3.21547579-2.6582445l-2.9566824-.0005311-.05528926-.0023723c-.62696583-.0539002-1.09413159-.357298-1.19914418-.9407787-.07120292-.3956243.02228884-.8224057.26825042-1.3305008l1.22477743-2.1804612.00256185-5.47226211c.106983-1.20963846.55960923-2.33731784 1.34795451-3.37118699.66711845-.87488719 1.62002276-1.51848984 2.65403036-1.88964933-.0041634-.04888862-.00596232-.09853393-.00596232-.14837128 0-1.10768532.8822844-2.00564169 1.97063737-2.00564169zm1.81707057 17.3422137h-3.70545713c.27502456.7704061 1.00073509 1.3206918 1.85272857 1.3206918.85199346 0 1.57770396-.5502857 1.85272856-1.3206918zm-1.7209875-14.21824281c-1.35339267 0-2.84274314.64549926-3.67690909 1.73945957-.63765953.83625351-.9934734 1.72273321-1.07472073 2.61135453v5.59008561c0 .1163887-.02985467.2307611-.08661089.3318037l-1.2916294 2.2967217c-.06083555.1264402-.09908305.2306487-.11961877.3107344l12.01348858.0000842c.1216287.0019692.2130862-.0027421.2765286-.0056377-.0326108-.0725953-.0791319-.1607265-.1414397-.2647786l-1.2868556-2.2671489c-.0577073-.1016673-.0880893-.2170093-.0880893-.334422l.00369-5.58667999c-.1214908-1.16164376-.5058946-2.06362732-1.1491896-2.7313417-1.0409218-1.08043503-2.262609-1.69023482-3.3786441-1.69023482zm-.09608307-1.78687643c-.30454236 0-.56067986.21092708-.63507215.49707237.24538411-.03155245.4896322-.04729039.73115522-.04729039.1779541 0 .3565406.01085352.5352283.0321895-.0789066-.27779362-.331681-.48197148-.63131137-.48197148z" fill="#555"/></svg>