<svg fill="none" height="32" viewBox="0 0 32 32" width="32" xmlns="http://www.w3.org/2000/svg"><g stroke="#71717a" stroke-linecap="round" stroke-linejoin="round" stroke-width="1.5"><path d="m13.333 29c.1694.5769.521 1.0835 1.0023 1.4438.4814.3603 1.0665.5551 1.6677.5551.6013 0 1.1864-.1948 1.6677-.5551s.833-.8669 1.0023-1.4438"/><path d="m16 4v-3"/><path d="m16 4c2.6522 0 5.1957 1.07029 7.0711 2.97542 1.8753 1.90513 2.9289 4.48908 2.9289 7.18328 0 9.5438 2 11.1746 2 11.1746h-24s2-2.5952 2-11.1746c0-2.6942 1.05357-5.27815 2.92893-7.18328 1.87537-1.90513 4.41887-2.97542 7.07107-2.97542z"/></g></svg>